<svg width="181" height="113" viewBox="0 0 181 113" fill="none" xmlns="http://www.w3.org/2000/svg">
<path fill-rule="evenodd" clip-rule="evenodd" d="M86.0086 95.4513C87.2365 96.1038 86.3392 97.7668 87.2859 99.0148C89.1383 96.4089 88.6204 95.4562 90.0708 95.4595C90.7685 96.3251 91.4081 100.37 90.8993 101.584C89.0465 101.998 89.4792 99.7242 89.1368 98.0599C88.6531 98.595 88.3077 99.3566 87.8894 100.078C87.2824 101.125 87.477 101.781 86.2478 101.77C85.5342 100.986 85.718 99.969 85.5817 98.6332C85.4503 97.3445 84.7848 96.0031 86.0086 95.4513ZM94.7741 99.0296C96.2384 97.576 96.4924 96.0315 97.1257 95.3977C98.5163 95.5621 98.2992 96.9115 98.3601 98.4066C98.4192 99.8576 98.8286 101.01 98.1279 101.969C96.5981 102.097 96.8675 101.298 96.8302 98.3979C95.7006 98.9707 95.0178 101.259 94.1327 101.853C92.8764 101.608 93.1147 100.83 93.1058 99.4879C93.0995 98.5217 92.9228 97.0155 92.9532 96.2423C92.9966 95.1364 94.1052 94.6559 94.3239 96.0496C94.4821 97.0583 94.315 98.0929 94.7741 99.0296V99.0296ZM79.3852 94.151C79.7512 95.3426 78.9608 95.5541 79.5948 96.6952C80.5981 97.3243 81.5004 95.9466 81.8085 95.0781C82.5563 92.971 83.9861 93.7025 83.6548 95.4678C83.3079 95.6553 83.1022 95.6856 82.6579 95.9086L81.7036 96.7018C82.6144 97.265 83.083 97.22 83.5528 98.0958C83.9862 98.9036 83.9287 100.048 83.7406 100.859L82.6218 101.001C82.2511 99.9228 82.478 98.519 81.2332 98.2398C78.9893 97.7364 80.7156 100.034 79.797 100.781C78.3232 101.979 78.7019 99.8433 78.7554 99.0587C78.9064 96.8413 76.5555 93.597 79.3852 94.151V94.151ZM114.363 99.9389C113.697 98.4353 114.784 98.2008 114.498 96.2545C114.348 95.234 114.399 95.525 113.802 95.3457C113.155 95.7898 113.338 95.7058 113.352 96.6832C113.393 99.5575 113.399 102.285 109.706 100.362C108.701 99.8383 108.954 99.3649 109.205 98.54C110.643 98.2768 110.783 98.293 111.25 99.0239L111.664 99.6391C112.234 98.9858 112.354 97.8356 112.339 96.9021C112.302 94.6215 111.672 96.0663 110.673 95.1701C110.854 94.1846 111.583 94.1899 113.507 94.0138C118.149 93.5888 114.839 94.3592 115.927 98.2137C116.359 99.7422 115.843 100.267 114.363 99.9389ZM105.553 96.9155C106.538 97.3863 107.117 97.2349 107.772 98.0326C108.185 98.5357 108.77 99.8597 108.25 100.574C106.676 102.74 107.568 97.539 104.395 98.5964C103.935 99.5835 104.655 99.4929 104.716 100.383C104.764 101.086 104.081 101.754 103.414 101.111C102.73 100.442 103.391 100.263 103.026 98.492C102.817 97.4798 100.643 93.9712 102.841 94.6147C103.768 94.8863 103.029 95.8553 103.582 97.0741C104.644 97.2881 105.273 96.4189 105.563 95.5151C105.98 94.2133 105.711 93.5763 107.433 94.0648C107.761 96.1915 106.502 95.0069 105.553 96.9155ZM71.3907 95.7635C72.0313 95.3392 72.5174 94.7915 73.4476 94.6396C73.4801 94.6343 76.5882 94.5665 76.6092 94.5697C77.7094 94.7338 77.5446 96.1047 76.7095 96.385C75.7195 96.7172 75.6063 95.6612 74.7454 95.3304C71.682 94.153 70.9478 100.218 74.5059 98.8757C75.5382 98.4862 74.9859 97.4993 76.3879 97.5581C78.2476 100.162 72.3 102.03 71.0993 98.9948C70.7747 98.1742 70.706 96.7942 71.3026 96.1722L70.2549 95.5587C69.5882 95.054 70.4285 95.1984 69.3327 94.9238C69.1096 95.2071 69.2965 94.8632 69.0747 95.3457C69.0278 95.4479 68.8791 95.8754 68.8457 95.9935C67.8928 99.3613 69.139 98.2982 69.2558 99.618C68.1957 99.8269 65.7658 99.8717 64.9842 99.5381C64.496 97.6851 67.3364 99.9941 67.4837 94.7187C66.048 94.4432 65.1286 95.6367 64.7597 94.4677C64.6421 94.095 64.9518 93.2977 65.0915 93.1088C65.7721 92.1888 67.4337 93.0087 70.0046 93.4648C71.8469 93.7916 71.8341 94.0376 71.3907 95.7635V95.7635ZM94.0049 93.7947C94.6871 93.5634 96.8824 93.3058 97.3816 93.4321C97.6481 94.6202 97.2916 95.0048 96.0128 95.1371C94.8129 95.2612 93.9827 94.9483 94.0049 93.7947ZM62.6216 96.1523C63.8033 97.4519 59.2648 98.4727 58.0561 95.7773C57.1915 93.8495 59.4045 91.5384 61.7351 91.8974C64.178 92.2736 65.6464 95.567 61.0732 94.4887C58.749 93.9407 59.3042 94.4956 59.3502 94.8858C59.5638 96.6955 61.9421 96.0184 61.9983 96.012C62.9161 95.907 62.3228 95.8756 62.6216 96.1523ZM119.36 100.32C118.482 99.5243 117.408 96.8024 119.875 97.2487C120.059 98.037 119.876 98.2991 119.847 98.9825C120.824 99.0345 121.33 98.2966 121.685 97.5569C121.365 97.1045 120.655 96.8404 120.188 96.5185C119.572 96.0945 119.184 95.6991 118.628 95.2972C118.005 94.8474 116.464 93.9719 116.243 93.5586C115.721 92.5829 116.512 91.6665 117.88 92.614C119.168 93.5054 120.39 94.5442 121.77 95.2785C121.578 92.0284 120.556 90.2984 121.953 90.2847C123.26 90.2719 122.286 91.3182 122.297 93.2838C122.3 93.7775 123.767 100.591 119.36 100.32V100.32ZM54.4178 89.5038C55.4461 89.4994 56.3454 89.9383 57.1192 90.5018C57.1357 91.5025 56.6326 93.192 56.3567 94.1363L57.2662 94.7447C57.2743 95.8009 56.8179 96.9311 56.2426 97.3366C54.4589 98.5937 55.2472 96.1732 55.2939 95.5745C54.4166 95.3246 53.5277 94.8075 52.4431 94.979C51.8106 95.874 52.4112 95.975 51.3742 96.3874C50.0698 95.5484 50.8447 93.7685 51.0205 93.5898C51.6199 92.9802 51.7818 93.8275 52.7995 92.5626C53.3594 91.8668 53.6082 91.5627 54.3896 91.1919C53.9911 90.1717 53.6928 90.5388 54.4178 89.5038V89.5038ZM124.258 91.2847C124.269 92.0013 124.458 92.3825 124.656 92.9024C126.293 92.7117 127.64 91.42 129.177 92.867C130.448 94.0648 129.286 96.1083 128.078 96.6563C124.279 98.3806 124.226 93.5526 123.902 92.8028C122.854 90.373 123.152 89.7061 126.065 89.2914C127.328 89.1116 127.987 88.5942 128.953 88.6155C129.721 91.3534 126.3 90.4961 124.258 91.2847V91.2847ZM77.6223 46.3844C78.3305 44.7106 78.5149 41.3356 80.3423 41.0222C82.4691 40.6576 81.6982 45.4892 82.5777 46.656C83.448 43.5867 83.6092 41.3269 86.0052 41.5829C86.9938 42.9352 86.8071 44.8787 87.3415 46.8339C87.5764 47.6931 87.6381 47.9414 88.3603 48.2296C91.2689 46.4636 89.68 37.4324 91.8936 34.0072C95.1739 33.4469 94.4811 35.8211 93.688 39.5504C93.3143 41.3074 92.4584 45.7988 93.2883 47.2789C94.608 47.2702 95.5621 46.0807 96.0362 45.1777C95.3038 44.1036 94.7283 44.5936 93.974 42.7782C92.2415 38.6085 96.9697 35.0238 98.9693 38.8409C99.3764 39.6181 98.8696 39.1387 99.5489 39.597C100.186 38.4348 100.622 36.1174 101.271 34.573C101.889 33.1017 103.161 31.0293 105.089 31.6136C108.66 34.4885 100.676 40.2971 103.468 42.9119C104.904 43.4765 106.448 41.2716 106.958 40.2576C107.308 39.562 107.623 38.8957 108.006 38.1005C108.469 37.1366 108.428 36.4568 109.736 36.6398C110.258 38.6434 107.438 42.3138 106.511 43.2326C102.584 47.126 101.025 42.5183 100.546 41.9196C99.1101 42.4731 99.4709 44.2915 96.6027 47.2169C92.5871 51.3124 92.1734 48.0245 90.8266 47.4817C87.1762 55.0162 85.3812 46.7248 84.5534 46.3319C83.0905 48.0303 84.0541 52.487 81.9465 52.9879C79.9449 51.6251 81.0495 47.3677 79.8086 45.578C79.0504 45.9702 79.5719 45.432 78.7924 47.7967C77.9839 50.2492 77.357 54.5122 76.5505 55.3609C75.5144 55.0267 76.4056 54.8588 75.3189 54.2685C74.0751 55.1457 74.4337 56.1304 72.2348 57.0556C69.504 58.2045 69.4868 56.3711 68.061 55.9207C67.6354 56.5512 65.6355 61.3884 62.9203 59.0739C62.0216 58.3077 62.1492 57.5944 61.2086 57.3532C60.4555 58.3596 60.2408 61.5043 58.4435 62.3158C57.5614 62.714 57.1327 62.2919 56.5052 62.0735C55.4217 63.0013 53.4042 66.5553 50.8602 65.1481C48.8054 64.0114 49.2501 60.1007 49.0192 57.5777C48.4631 57.1679 47.8636 57.1327 47.121 57.1586C46.9594 58.1581 46.9439 58.8197 46.3807 59.4116C45.2748 59.2742 45.1749 58.922 45.4167 57.8491C45.7016 56.5845 45.6783 56.044 45.419 54.7643C45.2044 53.7045 44.342 51.0553 44.9898 49.9053C46.0387 48.0432 48.3435 50.564 47.5159 53.4965C47.2986 54.2662 46.9887 54.8765 47.5992 55.4128C48.8548 56.4353 49.4503 53.8238 50.2463 52.9096C52.7405 52.8064 51.7215 55.6911 51.4992 57.5411C51.2882 59.2968 50.8115 62.2873 52.0156 63.3958C53.8001 63.9319 54.8473 61.4049 55.3295 60.0372C56.2834 57.3314 56.0259 52.2852 58.7401 49.3399C59.8582 48.1266 61.9357 46.8559 63.3185 48.8122C63.2269 49.8742 62.7729 49.4245 62.8255 51.1586C62.8813 52.9997 63.4533 56.9156 65.0569 57.6256C67.2097 56.4284 67.219 52.2365 67.9634 49.8035C68.3641 48.4935 68.9631 47.1497 69.6794 46.163C74.2463 39.8718 75.4322 49.2975 72.2595 48.6365L71.9075 46.9303C70.414 47.099 70.0084 48.3998 69.6989 50.0211C68.2624 57.5464 74.7657 55.9329 75.2672 49.6634C75.6496 44.883 74.687 44.8565 76.7837 40.4424C78.8407 36.1118 83.2092 36.3787 87.8842 35.3054C89.9507 34.831 89.8294 34.0239 89.5389 32.219C89.2905 30.6756 91.2216 30.7451 91.3071 33.6437C91.5006 40.2047 84.7193 37.7726 80.7512 39.4887C79.4781 40.0392 78.3175 40.7827 77.9732 42.0593C77.6173 43.378 76.9264 45.173 77.6223 46.3844V46.3844ZM31.0628 73.4373C33.7898 73.7747 37.7411 73.0864 40.4546 72.8132C41.9003 72.6677 43.4385 72.3831 44.8701 72.0971C45.9973 71.8719 48.4213 71.1389 49.2346 71.1643C49.7853 70.5715 51.9279 69.8672 52.9171 69.4246C53.5509 69.141 54.1861 68.9196 54.8642 68.5644C55.4197 68.2736 56.0366 67.8404 56.6085 67.5447C57.8778 66.8885 58.9752 66.3289 60.1079 65.6659C61.2189 65.0155 62.5656 64.3633 63.6215 63.6248L70.6318 59.7333C73.1306 58.4828 75.4438 57.3684 78.0058 56.203L89.8379 51.7849C93.6074 49.9315 108.459 47.2221 113.006 47.3264C115.004 44.6412 113.73 45.7306 116.707 42.733C119.34 40.0816 121.864 37.9766 125.985 38.1081C130.394 38.2487 131.82 38.0648 135.038 40.1961C136.19 40.9595 140.164 44.463 140.415 45.8133C140.681 46.0049 140.581 45.8789 140.814 46.1549C140.905 46.2627 141.023 46.473 141.064 46.5563C141.28 46.9957 141.302 47.2008 141.415 47.6649C141.759 48.2747 142.04 49.2028 141.978 50.0323L142.117 50.3773C142.131 50.4224 142.161 50.4997 142.177 50.5557L142.432 51.6304C142.57 52.1431 142.751 52.7452 142.912 53.0334C143.881 52.9752 144.503 52.3822 145.167 51.935C147.928 50.7001 150.81 50.6093 153.441 52.1377C156.077 53.6691 156.447 55.4039 157.547 58.6898C161.059 58.2224 163.246 57.5898 165.728 59.7384C167.128 60.9499 168.677 64.334 168.838 66.9995C168.823 69.8964 169.004 71.9214 167.48 74.1409C167.165 75.0262 166.708 75.4325 166.182 76.1716C165.269 77.4552 164.145 78.5789 162.854 79.4884C162.116 80.0082 161.464 80.6321 160.68 80.8998C159.229 82.1736 155.443 83.7109 155.276 83.8334C153.244 84.2555 150.938 85.1586 148.675 85.3693C146.5 85.4043 144.543 85.7445 142.236 85.781C139.874 85.8184 137.532 85.758 135.181 85.7972C127.073 85.9326 117.656 86.0175 110.468 82.2914C106.78 80.3801 105.513 78.6156 103.332 75.4096C98.8231 75.355 94.8003 75.5388 90.5045 75.7948C88.5349 75.9123 86.54 76.2391 84.5314 76.4598C83.0121 76.6266 79.8701 77.2975 78.5328 77.1814C71.3822 78.0718 60.3998 81.2022 52.4333 80.9029C50.974 80.8481 49.1854 80.8157 47.7458 80.7011C46.8368 80.6287 43.9525 80.4895 43.2553 79.9173C40.7971 80.2587 29.0525 77.3023 27.7271 76.1401C27.0026 75.9753 26.4731 75.8172 25.9976 75.3C13.0737 71.7811 14.0539 57.4785 18.7199 48.0098C19.8243 45.7687 21.1591 43.5237 22.4238 41.6687C23.1682 40.5766 23.8473 39.6998 24.5986 38.7127C26.8418 35.7655 29.2085 33.4556 32.1393 31.0734C49.6405 16.8475 65.0158 22.3372 59.3738 35.2188C57.5629 39.3533 53.1398 43.6214 49.7071 45.8622C47.8289 47.0883 45.0834 48.4354 42.4019 48.6786C37.4551 49.1273 38.3318 44.6606 40.8983 44.1956C42.454 45.3902 40.6834 48.2801 46.491 46.2835C48.5007 45.5926 50.5639 44.0077 52.0575 42.8673C55.1725 40.4888 58.5008 37.2383 57.9474 30.8677C57.4527 25.1735 52.1962 24.0262 46.3687 25.206C34.4222 27.6247 22.3596 39.6938 18.9171 51.6347C16.8814 58.696 17.2484 67.3525 23.9512 71.3203C25.9204 72.4859 28.4735 73.1517 31.0628 73.4373ZM86.795 2.70961C62.8319 3.39441 36.933 10.3483 20.2649 24.3297C18.3966 25.8969 14.9494 29.0194 13.4878 30.8117C12.7768 31.6835 12.1584 32.2965 11.4407 33.2495C6.50958 39.7967 1.80788 48.6625 3.06148 59.9259C5.13678 78.5723 21.7101 91.4829 35.5151 98.2363C52.1215 106.36 73.0942 110.82 94.355 110.119C116.862 109.376 139.654 103.549 155.758 92.2637C190.38 68.0016 183.314 33.3037 145.487 14.5644C129.093 6.44251 107.886 2.10691 86.795 2.70961V2.70961Z" fill="white"/>
<path fill-rule="evenodd" clip-rule="evenodd" d="M158.332 76.6954C158.402 76.6276 158.3 76.1198 159.207 76.4943C159.48 76.6071 159.777 77.0477 159.928 77.2466C159.722 77.8925 159.375 78.332 158.705 78.5052C158.078 77.824 158.558 76.889 158.332 76.6954ZM109.014 54.5721L107.333 54.6891C106.992 55.0747 106.687 55.095 106.211 55.3318C104.851 56.0077 104.032 56.8263 103.184 57.7559C102.862 58.3976 102.801 58.2616 102.412 59.0246C102.131 59.5765 102.041 59.8383 101.834 60.3534L101.457 61.5972L101.321 62.4249L100.967 65.066L101.175 67.9402L102.062 67.5749C102.345 67.9788 102.122 67.6102 102.345 68.0042C102.984 69.1332 102.721 69.6418 103.608 69.2139C102.978 67.9308 103.764 67.2672 104.111 66.9262C104.437 67.037 104.672 67.1451 104.927 67.8111C105.048 68.1255 104.865 69.586 106.319 70.3781C106.561 70.1602 106.325 70.4118 106.589 70.0505L106.96 69.5012L107.313 69.8471C107.513 70.0518 107.401 69.9584 107.592 70.1444C107.509 68.5177 107.524 68.4638 108.555 67.7162C110.236 66.4979 109.137 67.3431 109.863 65.6152C111.466 64.991 111.679 65.8636 112.169 66.1679C113.024 66.6979 113.156 65.1169 113.935 67.5234C110.989 68.2349 113.193 68.0331 110.923 69.0414C110.881 69.0602 110.802 69.0839 110.751 69.1225L110.743 69.9776C110.798 70.0083 110.88 69.9801 110.906 70.0408L112.033 70.019C110.99 71.6272 111.865 69.6282 110.767 72.3047C110.502 72.9482 110.548 72.5168 110.536 73.4605C111.461 73.4186 111.569 73.151 112.15 73.0998C112.813 73.0415 112.827 73.316 113.657 73.4623C113.879 72.9189 114.293 71.6877 114.285 70.9903C112.042 71.3577 113.251 68.6731 113.287 68.6298C113.573 68.2874 113.523 68.4955 114.141 68.5732C113.923 69.3238 113.852 68.8508 114.154 69.6196C115.675 69.4637 114.272 69.6751 115.206 69.2145C115.653 69.877 116.031 70.0514 116.579 70.6201C117.198 71.2636 117.064 71.5294 117.236 72.5045L119.14 73.2277C119.205 73.2195 119.285 73.1922 119.338 73.183C119.393 73.1737 119.475 73.1552 119.539 73.1288C119.908 72.1684 119.716 72.6264 119.442 71.6794C119.009 70.1836 119.988 71.7636 119.69 69.4123C119.626 68.9054 120.094 69.3447 119.819 68.6635C120.384 69.5013 120.566 69.0808 121.029 69.7633C121.402 70.312 121.294 71.1472 121.56 71.8403C122.654 71.8654 122.851 71.8473 123.331 71.142C123.756 70.5187 123.579 70.1098 124.064 69.9124C124.383 70.6208 123.864 70.8039 124.332 71.8345L124.836 71.8176C125.523 71.6209 125.568 71.0333 126.629 71.0123C127.374 73.0549 128.043 70.5482 129.486 74.7323C129.74 75.4676 129.283 75.8642 129.467 76.8344C129.749 78.3191 130.519 77.6544 131.924 78.0252C131.848 76.5827 131.29 76.6258 131.71 75.9191C131.979 75.9642 132.599 76.3898 132.88 76.5549C132.125 76.3248 131.848 77.4017 131.816 78.2709C132.587 78.7752 133.227 79.1673 133.515 80.1687C133.592 80.1413 133.696 80.001 133.734 80.059C133.77 80.1129 133.891 79.9807 133.935 79.9515C133.972 79.9267 134.059 79.879 134.099 79.85C134.179 79.7916 134.335 79.5738 134.38 79.5348C134.468 80.8151 132.594 80.8597 136.259 82.4115C138.687 83.4393 137.744 83.7206 139.398 84.8148C140.066 85.2566 140.657 85.8108 142.218 85.5397C143.024 85.3999 141.778 85.6326 142.494 85.4623L148.675 85.3693C150.938 85.1586 153.244 84.2555 155.276 83.8334L155.162 83.0479C156.271 83.1279 156.037 83.0096 156.735 82.5794C157.474 82.1244 157.551 81.9883 158.126 81.6012C157.782 80.0263 157.838 81.5956 157.485 80.4535C158.75 78.3596 158.991 79.7707 159.981 78.5846C160.358 78.8479 160.827 79.1611 161.204 79.4389L160.768 80.1838C160.051 79.9449 160.71 79.9653 159.722 79.7728C159.803 81.5172 160.318 80.5422 160.68 80.8998C161.464 80.6321 162.116 80.0082 162.854 79.4884C164.145 78.5789 165.269 77.4552 166.182 76.1716C166.708 75.4325 167.165 75.0262 167.48 74.1409C167.398 73.994 168.112 71.8429 168.25 71.1039C168.59 69.2717 168.109 69.2566 167.534 67.9191L165.172 65.427C163.159 64.1226 165.143 65.2035 162.835 64.3315C161.72 63.9103 162.185 63.6551 160.856 63.5824C156.26 63.3307 155.605 64.3354 152.613 65.9828C152.203 65.506 150.905 59.2473 150.132 57.8124C148.884 55.4961 147.333 54.1766 145.541 52.3484L145.167 51.935C144.503 52.3822 143.881 52.9752 142.912 53.0334C142.751 52.7452 142.57 52.1431 142.432 51.6304L142.177 50.5557C142.161 50.4997 142.131 50.4224 142.117 50.3773L141.978 50.0323C141.883 50.4493 141.816 50.3647 142.021 50.1415C137.274 49.0284 142.706 48.9835 132.617 49.0142C129.241 49.0244 128.575 49.8381 126.823 51.1497C126.27 51.5639 125.85 51.7534 125.244 52.1676C123.781 53.1675 124.491 52.9746 123.533 53.0844C122.285 53.2276 118.366 52.9484 115.942 53.2293C113.576 53.5035 110.347 56.4249 108.62 56.5839C108.895 55.6782 108.59 56.2514 109.449 55.6536C109.271 54.9502 109.257 55.3682 109.014 54.5721V54.5721Z" fill="#A9D6E9"/>
<path fill-rule="evenodd" clip-rule="evenodd" d="M86.795 2.70962C107.886 2.10692 129.093 6.44252 145.487 14.5644C183.314 33.3037 190.38 68.0016 155.758 92.2637C139.654 103.549 116.862 109.376 94.355 110.119C73.0942 110.82 52.1215 106.36 35.5151 98.2363C21.7101 91.4829 5.13679 78.5723 3.06149 59.9259C1.80789 48.6625 6.50959 39.7967 11.4407 33.2495C12.1584 32.2965 12.7768 31.6835 13.4878 30.8117C14.9494 29.0194 18.3966 25.8969 20.2649 24.3297C36.933 10.3483 62.8319 3.39442 86.795 2.70962V2.70962ZM87.4619 0.495117H93.6724C95.3542 0.528117 96.9146 0.592617 98.2061 0.697617L102.257 0.922717C104.897 0.988717 107.684 1.51232 110.167 1.77752C123.439 3.19442 139.089 8.60402 150.075 14.4627C156.233 17.7463 165.477 24.5124 169.693 29.9073C173.2 34.3966 173.757 34.6936 176.657 40.4742C179.761 46.6629 180.291 51.2643 180.291 58.2191C180.291 64.0146 177.776 70.5726 175.228 75.177L170.796 81.6482C170.403 82.1485 170.178 82.3349 169.816 82.8057L160.806 91.3275C153.105 97.0897 147.378 100.207 138.418 103.788C134.397 105.395 129.882 106.899 125.346 108.033C110.34 111.784 102.441 112.309 86.6499 112.309C71.6593 112.309 53.0622 108.455 39.4077 102.468C34.9727 100.524 30.5386 98.4353 26.4897 95.7172C23.9752 94.0292 22.5938 93.2403 20.0932 91.2104C18.3602 89.8037 16.9719 88.7033 15.4035 87.1345C13.8611 85.5917 12.5332 84.3455 11.115 82.6576C7.83129 78.7497 6.50109 76.6532 4.19469 72.0469C1.37619 66.418 0.705292 61.4127 0.705292 54.7984C0.705292 42.2209 10.2743 28.8867 20.2217 21.5081C20.765 21.1051 21.0151 20.8544 21.5321 20.4668C25.7254 17.3235 29.2054 15.4658 33.7392 13.0049C37.0158 11.2264 39.8758 10.2762 42.8946 8.90522L49.3692 6.61422C51.6478 5.84992 53.7978 5.32072 56.1678 4.64742C58.5224 3.97852 60.8831 3.53192 63.3287 3.04282C65.6206 2.58442 68.3698 2.04302 70.8287 1.77732L80.8767 0.708118C82.7193 0.613318 85.0415 0.534517 87.4619 0.495117V0.495117Z" fill="#F167A8"/>
<path fill-rule="evenodd" clip-rule="evenodd" d="M57.9536 59.9786C57.5941 57.8832 57.7497 56.3608 58.3756 54.3162C58.6356 53.4673 58.9557 52.8011 59.3208 52.0602C59.553 51.5892 59.8308 50.8076 60.2667 50.655C60.3022 50.6426 60.3699 50.6314 60.4064 50.6258C60.4445 50.6198 60.5193 50.6298 60.5552 50.6292L60.8733 50.7017C60.9675 52.0237 59.9982 56.4021 59.4135 58.1429C59.0745 59.1522 58.9963 59.7884 57.9536 59.9786V59.9786ZM96.6982 42.7736C94.296 42.964 95.2375 40.5248 96.2721 40.0185C98.1351 39.1067 97.4479 41.9168 96.6982 42.7736ZM102.904 37.5044C102.952 36.2597 103.074 34.1198 104.181 33.668C105.328 34.767 103.439 37.0131 102.904 37.5044ZM82.5777 46.656C81.6982 45.4892 82.4691 40.6576 80.3423 41.0222C78.5149 41.3356 78.3305 44.7106 77.6223 46.3844C76.9264 45.173 77.6173 43.378 77.9732 42.0593C78.3175 40.7827 79.4781 40.0392 80.7512 39.4887C84.7193 37.7726 91.5006 40.2047 91.3071 33.6437C91.2216 30.7451 89.2905 30.6756 89.5389 32.219C89.8294 34.0239 89.9507 34.831 87.8842 35.3054C83.2092 36.3787 78.8407 36.1118 76.7837 40.4424C74.687 44.8565 75.6496 44.883 75.2672 49.6634C74.7657 55.9329 68.2624 57.5464 69.6989 50.0211C70.0084 48.3998 70.414 47.099 71.9075 46.9303L72.2595 48.6365C75.4322 49.2975 74.2463 39.8718 69.6794 46.163C68.9631 47.1497 68.3641 48.4935 67.9634 49.8035C67.219 52.2365 67.2097 56.4284 65.0569 57.6256C63.4533 56.9156 62.8813 52.9997 62.8255 51.1586C62.7729 49.4245 63.2269 49.8742 63.3185 48.8122C61.9357 46.8559 59.8582 48.1266 58.7401 49.3399C56.0259 52.2852 56.2834 57.3314 55.3295 60.0372C54.8473 61.4049 53.8001 63.9319 52.0156 63.3958C50.8115 62.2873 51.2882 59.2968 51.4992 57.5411C51.7215 55.6911 52.7405 52.8064 50.2463 52.9096C49.4503 53.8238 48.8548 56.4353 47.5992 55.4128C46.9887 54.8765 47.2986 54.2662 47.5159 53.4965C48.3435 50.564 46.0387 48.0432 44.9898 49.9053C44.342 51.0553 45.2044 53.7045 45.419 54.7643C45.6783 56.044 45.7016 56.5845 45.4167 57.8491C45.1749 58.922 45.2748 59.2742 46.3807 59.4116C46.9439 58.8197 46.9594 58.1581 47.121 57.1586C47.8636 57.1327 48.4631 57.1679 49.0192 57.5777C49.2501 60.1007 48.8054 64.0114 50.8602 65.1481C53.4042 66.5553 55.4217 63.0013 56.5052 62.0735C57.1327 62.2919 57.5614 62.714 58.4435 62.3158C60.2408 61.5043 60.4555 58.3596 61.2086 57.3532C62.1492 57.5944 62.0216 58.3077 62.9203 59.0739C65.6355 61.3884 67.6354 56.5512 68.061 55.9207C69.4868 56.3711 69.504 58.2045 72.2348 57.0556C74.4337 56.1304 74.0751 55.1457 75.3189 54.2685C76.4056 54.8588 75.5144 55.0267 76.5505 55.3609C77.357 54.5122 77.9839 50.2492 78.7924 47.7967C79.5719 45.432 79.0504 45.9702 79.8086 45.578C81.0495 47.3677 79.9449 51.6251 81.9465 52.9879C84.0541 52.487 83.0905 48.0303 84.5534 46.3319C85.3812 46.7248 87.1762 55.0162 90.8266 47.4817C92.1734 48.0245 92.5871 51.3124 96.6027 47.2169C99.4709 44.2915 99.1101 42.4731 100.546 41.9196C101.025 42.5183 102.584 47.126 106.511 43.2326C107.438 42.3138 110.258 38.6434 109.736 36.6398C108.428 36.4568 108.469 37.1366 108.006 38.1005C107.623 38.8957 107.308 39.562 106.958 40.2576C106.448 41.2716 104.904 43.4765 103.468 42.9119C100.676 40.2971 108.66 34.4885 105.089 31.6136C103.161 31.0293 101.889 33.1017 101.271 34.573C100.622 36.1174 100.186 38.4348 99.5489 39.597C98.8696 39.1387 99.3764 39.6181 98.9693 38.8409C96.9697 35.0238 92.2415 38.6085 93.974 42.7782C94.7283 44.5936 95.3038 44.1036 96.0362 45.1777C95.5621 46.0807 94.608 47.2702 93.2883 47.2789C92.4584 45.7988 93.3143 41.3074 93.688 39.5504C94.4811 35.8211 95.1739 33.4469 91.8936 34.0072C89.68 37.4324 91.2689 46.4636 88.3603 48.2296C87.6381 47.9414 87.5764 47.6931 87.3415 46.8339C86.8071 44.8787 86.9938 42.9352 86.0052 41.5829C83.6092 41.3269 83.448 43.5867 82.5777 46.656V46.656Z" fill="#F167A8"/>
<path fill-rule="evenodd" clip-rule="evenodd" d="M101.175 67.9402L101.132 68.7281L102.214 73.1922L102.927 74.7252C103.396 75.1833 103.163 74.9758 103.332 75.4096C105.513 78.6156 106.78 80.3801 110.468 82.2914C117.656 86.0175 127.073 85.9326 135.181 85.7972C137.532 85.758 139.874 85.8184 142.236 85.781C144.543 85.7445 146.5 85.4043 148.675 85.3693L142.494 85.4623C141.778 85.6326 143.024 85.3999 142.218 85.5397C140.657 85.8108 140.066 85.2566 139.398 84.8148C137.744 83.7206 138.687 83.4393 136.259 82.4115C132.593 80.8597 134.468 80.8151 134.38 79.5348C134.335 79.5738 134.179 79.7916 134.099 79.85C134.059 79.879 133.972 79.9267 133.934 79.9515C133.891 79.9807 133.769 80.1129 133.734 80.059C133.696 80.001 133.592 80.1413 133.515 80.1687C133.227 79.1673 132.587 78.7752 131.816 78.2709C131.848 77.4017 132.125 76.3248 132.879 76.5549C132.599 76.3898 131.979 75.9642 131.71 75.9191C131.29 76.6258 131.848 76.5827 131.924 78.0252C130.519 77.6544 129.749 78.3191 129.467 76.8344C129.283 75.8642 129.74 75.4676 129.486 74.7323C128.043 70.5482 127.374 73.0549 126.629 71.0123C125.568 71.0333 125.523 71.6209 124.836 71.8176L124.332 71.8345C123.864 70.8039 124.383 70.6208 124.064 69.9124C123.579 70.1098 123.756 70.5187 123.331 71.142C122.851 71.8473 122.654 71.8654 121.56 71.8403C121.294 71.1472 121.401 70.312 121.029 69.7633C120.566 69.0808 120.384 69.5013 119.819 68.6635C120.094 69.3447 119.626 68.9054 119.69 69.4123C119.988 71.7636 119.009 70.1836 119.442 71.6794C119.716 72.6264 119.908 72.1684 119.539 73.1288C119.475 73.1552 119.393 73.1737 119.338 73.183C119.285 73.1922 119.205 73.2195 119.14 73.2277L117.236 72.5045C117.064 71.5294 117.198 71.2636 116.579 70.6201C116.031 70.0514 115.653 69.877 115.206 69.2145C114.272 69.6751 115.675 69.4637 114.154 69.6196C113.852 68.8508 113.923 69.3238 114.141 68.5732C113.523 68.4955 113.573 68.2874 113.287 68.6298C113.251 68.6731 112.042 71.3577 114.285 70.9903C114.293 71.6877 113.879 72.9189 113.657 73.4623C112.827 73.316 112.813 73.0415 112.15 73.0998C111.569 73.151 111.461 73.4186 110.536 73.4605C110.548 72.5168 110.502 72.9482 110.767 72.3047C111.865 69.6282 110.99 71.6272 112.033 70.019L110.906 70.0408C110.88 69.9801 110.798 70.0083 110.743 69.9776L110.751 69.1225C110.802 69.0839 110.881 69.0602 110.923 69.0414C113.193 68.0331 110.989 68.2349 113.935 67.5234C113.156 65.1169 113.024 66.6979 112.169 66.1679C111.679 65.8636 111.466 64.991 109.863 65.6152C109.137 67.3431 110.236 66.4979 108.555 67.7162C107.524 68.4638 107.509 68.5177 107.592 70.1444C107.401 69.9584 107.513 70.0518 107.313 69.8471L106.96 69.5012L106.589 70.0505C106.325 70.4118 106.561 70.1602 106.319 70.3781C104.865 69.586 105.048 68.1255 104.927 67.8111C104.672 67.1451 104.437 67.037 104.111 66.9262C103.764 67.2672 102.978 67.9308 103.608 69.2139C102.721 69.6418 102.984 69.1332 102.345 68.0042C102.122 67.6102 102.345 67.9788 102.062 67.5749L101.175 67.9402V67.9402Z" fill="#83C4D6"/>
<path fill-rule="evenodd" clip-rule="evenodd" d="M113.006 47.3264L112.25 49.3378L111.929 50.3874L110.744 54.5101L109.014 54.5721C109.257 55.3682 109.271 54.9502 109.449 55.6536C108.59 56.2514 108.896 55.6782 108.62 56.5839C110.348 56.4249 113.576 53.5035 115.942 53.2293C118.366 52.9484 122.285 53.2276 123.533 53.0844C124.491 52.9746 123.782 53.1675 125.244 52.1676C125.85 51.7534 126.27 51.5639 126.823 51.1497C128.575 49.8381 129.241 49.0244 132.617 49.0142C142.706 48.9835 137.274 49.0284 142.021 50.1415C141.816 50.3647 141.883 50.4493 141.978 50.0323C142.04 49.2028 141.759 48.2747 141.415 47.6649C140.525 48.5757 141.763 48.1413 140.129 48.3383C140.029 48.0321 139.944 47.3262 139.837 47.0938L139.283 46.2467C139.735 45.8881 139.259 46.117 140.031 45.8459C140.087 45.8261 140.345 45.8241 140.415 45.8133C140.164 44.463 136.19 40.9595 135.038 40.1961C131.82 38.0648 130.394 38.2487 125.985 38.1081C121.864 37.9766 119.34 40.0816 116.707 42.733C113.73 45.7306 115.004 44.6412 113.006 47.3264V47.3264Z" fill="#83C4D6"/>
<path fill-rule="evenodd" clip-rule="evenodd" d="M25.9976 75.3L28.0718 75.5176L29.1579 75.5532C29.7581 75.1688 29.9045 75.3011 30.7285 75.3114C32.0862 75.2714 33.5345 74.8537 35.2219 74.8075C36.0903 74.4573 40.5994 74.1371 42.4395 73.6662C44.1793 73.2211 47.1738 72.0542 48.6994 71.9007C48.0224 70.7685 49.054 71.8151 48.1725 71.4997C47.3954 71.2216 48.1629 71.4034 47.686 71.5047C47.6215 71.5184 47.2939 71.6873 47.2293 71.7107L44.6393 72.3288C42.7281 72.7792 37.4671 73.4479 35.5632 73.4697C34.5593 73.4812 31.7697 73.2691 31.0628 73.4373C28.4735 73.1517 25.9204 72.4859 23.9512 71.3203C17.2484 67.3525 16.8814 58.696 18.9171 51.6347C22.3596 39.6938 34.4222 27.6247 46.3687 25.206C52.1962 24.0262 57.4527 25.1735 57.9474 30.8677C58.5008 37.2383 55.1725 40.4888 52.0575 42.8673C50.5639 44.0077 48.5007 45.5926 46.491 46.2835C40.6834 48.2801 42.454 45.3902 40.8983 44.1956C38.3318 44.6606 37.4551 49.1273 42.4019 48.6786C45.0834 48.4354 47.8289 47.0883 49.7071 45.8622C53.1398 43.6214 57.5629 39.3533 59.3738 35.2188C65.0158 22.3372 49.6405 16.8475 32.1393 31.0734C29.2085 33.4556 26.8418 35.7655 24.5986 38.7127C23.8473 39.6998 23.1682 40.5766 22.4238 41.6687C21.1591 43.5237 19.8243 45.7687 18.7199 48.0098C14.0539 57.4785 13.0737 71.7811 25.9976 75.3V75.3Z" fill="#F167A8"/>
<path fill-rule="evenodd" clip-rule="evenodd" d="M48.6994 71.9007C47.1738 72.0542 44.1793 73.2211 42.4395 73.6662C40.5994 74.1371 36.0903 74.4573 35.2219 74.8075C44.3431 75.269 52.1412 73.6895 59.3011 70.182C60.5303 69.5798 62.0587 68.8183 63.2372 68.3365C64.883 67.6637 65.7195 67.2703 67.2229 66.5444L75.2641 63.0347C75.9639 62.7194 76.6182 62.5906 77.2994 62.2827L83.6135 59.8404C86.1868 58.7716 94.3521 56.5633 97.2249 56.1059C98.3915 55.9202 98.4836 55.8148 99.4076 55.5431C101.083 55.0507 105.336 54.629 107.333 54.6891L109.014 54.5721L110.744 54.5101L111.929 50.3874C111.801 49.7974 111.964 50.0773 111.664 49.775C109.346 49.8892 99.8283 51.1908 97.6191 51.8429C96.1788 52.268 94.7684 52.4178 93.3356 52.8921C90.5725 53.8069 87.9129 54.5503 85.2407 55.4781C82.7688 56.3363 81.8242 56.6162 79.5384 57.7005C78.9303 57.9889 78.2652 58.0978 77.6414 58.3779L68.4757 62.6991C67.7529 63.16 67.4638 63.1593 66.7565 63.548L63.4296 65.3451C59.2348 67.3741 53.2053 71.2271 48.6994 71.9007V71.9007Z" fill="#F35645"/>
<path fill-rule="evenodd" clip-rule="evenodd" d="M27.7271 76.1401C29.0525 77.3023 40.7971 80.2587 43.2553 79.9173C44.3155 79.752 50.0954 80.1686 51.2512 80.2965C53.081 80.4991 60.1936 79.5559 62.5357 79.1724C63.8054 78.9645 64.8731 78.7455 65.9434 78.5178L71.0921 77.2705C71.6891 77.1519 72.362 77.1239 72.7977 77.0393C75.1927 76.5742 77.2744 75.9924 79.7002 75.5992C80.8587 75.4115 82.4045 75.3368 83.384 75.0202C84.8723 74.539 88.8868 74.2483 90.7128 73.9959L102.214 73.1922L101.132 68.7281L100.747 68.0621L73.6081 73.401C72.2832 73.8457 70.8281 74.2093 69.5106 74.6336C68.2412 75.0426 66.6058 75.3497 65.2156 75.7354C57.9892 77.7406 54.2874 78.5647 46.4569 78.5523C42.8214 78.5466 39.782 78.2547 36.4047 77.8028C34.7902 77.5868 33.2304 77.3641 31.6988 77.0985C30.8028 76.9432 28.1058 76.0369 27.7271 76.1401V76.1401Z" fill="#4A59A5"/>
<path fill-rule="evenodd" clip-rule="evenodd" d="M167.262 8.74171C170.715 6.95131 172.464 12.3081 169.629 13.5825C166.313 15.0734 163.876 10.4967 167.262 8.74171ZM167.891 6.26751C167.185 5.79471 164.602 2.85111 162.18 5.25981C161.062 6.37131 161.073 7.99741 161.824 9.34181C162.319 10.2292 162.726 10.0435 162.974 10.9709C157.815 12.1729 160.558 19.2447 165.326 16.9571C165.709 21.5644 171.739 21.4208 171.739 16.7433C173.046 16.7433 175.147 16.9219 176.12 14.924C177.179 12.7482 175.176 10.5088 173.022 10.3295C173.453 8.71471 174.091 9.79821 174.091 6.69511C174.091 3.23331 168.688 3.28361 167.891 6.26751V6.26751Z" fill="#F93F9C"/>
<path fill-rule="evenodd" clip-rule="evenodd" d="M145.167 51.935L145.541 52.3484C147.333 54.1766 148.884 55.4961 150.132 57.8124C150.905 59.2473 152.203 65.506 152.613 65.9828C155.605 64.3354 156.26 63.3307 160.856 63.5824C162.185 63.6551 161.72 63.9103 162.835 64.3315C165.143 65.2035 163.159 64.1226 165.172 65.427L167.534 67.9191C167.54 67.1378 167.472 67.6681 168.026 67.354C168.261 67.2213 168.682 67.0759 168.838 66.9995C168.677 64.334 167.128 60.9499 165.728 59.7384C163.246 57.5898 161.059 58.2224 157.547 58.6898C156.447 55.4039 156.077 53.6691 153.441 52.1377C150.81 50.6093 147.928 50.7001 145.167 51.935V51.935Z" fill="#83C4D6"/>
<path fill-rule="evenodd" clip-rule="evenodd" d="M28.0718 75.5176L25.9976 75.3C26.4731 75.8172 27.0026 75.9753 27.7271 76.1401C28.1058 76.0369 30.8028 76.9432 31.6988 77.0985C33.2304 77.3641 34.7902 77.5868 36.4047 77.8028C39.782 78.2547 42.8214 78.5466 46.4569 78.5523C54.2874 78.5647 57.9892 77.7406 65.2156 75.7354C66.6058 75.3497 68.2412 75.0426 69.5106 74.6336C70.8281 74.2093 72.2832 73.8457 73.6081 73.401L100.747 68.0621L101.132 68.7281L101.175 67.9402L100.967 65.066C97.8264 65.3865 94.4484 65.9164 91.4708 66.5092C90.0031 66.8014 88.4484 67.1131 87.0867 67.4572C85.6164 67.8287 83.9085 68.0911 82.5738 68.5029C81.1161 68.9526 79.8099 69.2252 78.3524 69.6328C77.3665 69.9085 77.4831 70.1881 76.3825 70.4236C75.4105 70.6316 75.0533 70.6939 74.1753 71.0045L61.9829 75.05C50.3348 78.6287 41.9884 78.0093 30.262 76.4033L28.3645 75.7937C28.3136 75.7561 28.2566 75.6927 28.2162 75.6599C28.1751 75.6266 28.1114 75.5724 28.0718 75.5176V75.5176Z" fill="#4492C4"/>
<path fill-rule="evenodd" clip-rule="evenodd" d="M35.2219 74.8075C33.5345 74.8537 32.0862 75.2714 30.7285 75.3114C32.0204 75.864 43.7875 75.5768 46.5472 75.1552C53.6641 74.068 52.9599 74.3326 60.0428 71.5488C61.0907 71.1369 61.0202 71.1958 61.8898 70.6569C62.747 70.1257 63.006 70.2533 63.9022 69.8713C64.3139 69.6957 64.2522 69.6518 64.7318 69.4255L71.8883 66.5116C72.7138 66.1583 72.8941 65.964 73.7758 65.6259L82.1479 62.6533C84.5592 61.8982 85.9673 61.3385 88.7415 60.6891C90.2376 60.339 91.8079 59.8635 93.2949 59.4766C94.922 59.0532 96.4581 58.8373 98.1708 58.5655C99.7607 58.3132 101.314 57.6495 103.184 57.7559C104.032 56.8263 104.851 56.0077 106.211 55.3318C106.687 55.095 106.992 55.0747 107.333 54.6891C105.336 54.629 101.083 55.0507 99.4076 55.5431C98.4836 55.8148 98.3915 55.9202 97.2249 56.1059C94.3521 56.5633 86.1868 58.7716 83.6135 59.8404L77.2994 62.2827C76.6182 62.5906 75.9639 62.7194 75.2641 63.0347L67.2229 66.5444C65.7195 67.2703 64.883 67.6637 63.2372 68.3365C62.0587 68.8183 60.5303 69.5798 59.3011 70.182C52.1412 73.6895 44.3431 75.269 35.2219 74.8075V74.8075Z" fill="#F5893E"/>
<path fill-rule="evenodd" clip-rule="evenodd" d="M30.7285 75.3114C29.9045 75.3011 29.7581 75.1688 29.1579 75.5532L32.4466 76.0853C34.7379 76.195 36.7079 76.417 38.9742 76.4201C40.7688 76.4224 43.9005 76.2488 45.4799 76.437C46.0633 76.0971 46.864 76.0862 47.561 76.0153C57.2423 75.0294 64.0344 71.4629 73.211 67.8994C81.418 64.7123 92.0504 61.4666 101.834 60.3534C102.041 59.8383 102.131 59.5765 102.412 59.0246C102.801 58.2616 102.862 58.3976 103.184 57.7559C101.314 57.6495 99.7607 58.3132 98.1708 58.5655C96.4581 58.8373 94.922 59.0532 93.2949 59.4766C91.8079 59.8635 90.2376 60.339 88.7415 60.6891C85.9673 61.3385 84.5592 61.8982 82.1479 62.6533L73.7758 65.6259C72.8941 65.964 72.7138 66.1583 71.8883 66.5116L64.7318 69.4255C64.2522 69.6518 64.3139 69.6957 63.9022 69.8713C63.006 70.2533 62.747 70.1257 61.8898 70.6569C61.0202 71.1958 61.0907 71.1369 60.0428 71.5488C52.9599 74.3326 53.6641 74.068 46.5472 75.1552C43.7875 75.5768 32.0204 75.864 30.7285 75.3114V75.3114Z" fill="#FED73E"/>
<path fill-rule="evenodd" clip-rule="evenodd" d="M32.4466 76.0853L29.1579 75.5532L28.0718 75.5176C28.1114 75.5724 28.1751 75.6266 28.2162 75.6599C28.2566 75.6927 28.3136 75.7561 28.3645 75.7937L30.262 76.4033C41.9884 78.0093 50.3348 78.6287 61.9829 75.05L74.1753 71.0045C75.0533 70.6939 75.4105 70.6316 76.3825 70.4236C77.4831 70.1881 77.3665 69.9085 78.3524 69.6328C79.8099 69.2252 81.1161 68.9526 82.5738 68.5029C83.9085 68.0911 85.6164 67.8287 87.0867 67.4572C88.4484 67.1131 90.0031 66.8014 91.4708 66.5092C94.4484 65.9164 97.8264 65.3865 100.967 65.066L101.321 62.4249C100.009 62.8577 98.2196 62.8697 96.6476 63.1704C90.8865 64.2725 81.1161 66.5515 76.0049 68.5633C74.7839 69.0439 73.455 69.5779 72.1437 70.013C70.8488 70.4427 69.4738 70.748 68.2373 71.3008C67.0806 71.8179 65.6726 72.2057 64.3854 72.7753C63.1492 73.3224 61.9541 73.6047 60.5964 74.1019C54.8234 76.2155 48.6653 77.0722 42.3948 77.036C41.3799 77.0301 34.0302 76.8354 33.0042 76.4373C32.4487 76.2217 32.7436 76.3662 32.4466 76.0853Z" fill="#45A670"/>
<path fill-rule="evenodd" clip-rule="evenodd" d="M11.9449 100.609C14.8145 99.4298 15.8337 103.533 13.6858 104.388C10.7396 105.562 9.74028 101.515 11.9449 100.609ZM12.2501 97.5569C11.4008 96.9882 11.4149 96.4879 9.89838 96.4879C8.56078 96.4879 7.76038 97.6734 7.76038 99.0534C7.76038 99.8301 8.01408 99.8034 8.18808 100.55C4.36398 102.573 7.08818 106.593 10.326 105.04C10.326 106.256 10.342 106.697 10.8613 107.497C11.6848 108.767 13.6269 108.962 14.6502 107.654C15.1703 106.989 15.2432 106.412 15.2432 105.253C15.957 105.596 17.1193 105.558 17.8268 105.272C20.0789 104.363 19.5073 100.621 16.3122 100.55C18.6052 96.2165 14.1365 94.7398 12.2501 97.5569Z" fill="#F93F9C"/>
<path fill-rule="evenodd" clip-rule="evenodd" d="M49.2346 71.1643C48.4213 71.1389 45.9973 71.8719 44.8701 72.0971C43.4385 72.3831 41.9003 72.6677 40.4546 72.8132C37.7411 73.0864 33.7898 73.7747 31.0628 73.4373C31.7697 73.2691 34.5593 73.4812 35.5632 73.4697C37.4671 73.4479 42.7281 72.7792 44.6393 72.3288L47.2293 71.7107C47.2939 71.6873 47.6215 71.5184 47.686 71.5047C48.1629 71.4034 47.3954 71.2216 48.1725 71.4997C49.054 71.8151 48.0224 70.7685 48.6994 71.9007C53.2053 71.2271 59.2348 67.3741 63.4296 65.3451L66.7565 63.548C67.4638 63.1593 67.7529 63.16 68.4757 62.6991L77.6414 58.3779C78.2652 58.0978 78.9303 57.9889 79.5384 57.7005C81.8242 56.6162 82.7688 56.3363 85.2407 55.4781C87.9129 54.5503 90.5725 53.8069 93.3356 52.8921C94.7684 52.4178 96.1788 52.268 97.6191 51.8429C99.8283 51.1908 109.346 49.8892 111.664 49.775C111.964 50.0773 111.801 49.7974 111.929 50.3874L112.25 49.3378C112.587 47.9859 112.332 49.0771 112.091 48.6373C108.813 48.7239 105.654 49.2073 102.473 49.5948C100.658 49.8159 91.5289 52.1455 89.5943 52.7978C82.3952 55.2255 77.6512 57.0656 70.8705 60.5818L56.9129 68.1164C55.0584 68.8616 51.3179 71.1323 49.2346 71.1643V71.1643Z" fill="#F7736D"/>
<path fill-rule="evenodd" clip-rule="evenodd" d="M12.0363 8.83301L10.2272 6.79381C9.3868 6.00321 9.1055 5.62611 7.5467 5.62611C7.1366 6.23841 6.9746 6.07031 6.7664 6.98381C6.6195 7.62871 6.6915 8.36911 6.6915 9.04681C9.0833 10.6485 8.9288 9.68811 11.6087 9.68811C10.0715 11.0243 8.4018 11.7494 8.4018 13.964C8.9938 14.3604 9.8694 14.9052 10.9229 14.7831C12.2272 14.6319 12.229 14.0439 12.6777 13.1089L12.6365 10.9709C12.9028 10.6377 12.7041 10.6619 12.8915 10.9709V11.1847C13.311 11.6673 14.3064 14.1005 15.7847 13.8321C17.2046 13.5744 17.5949 11.6162 17.5949 9.90201C15.7621 8.67471 15.0623 9.06221 12.6777 9.26061C12.926 9.04481 12.5823 9.30761 13.028 8.96961C13.2818 8.77721 13.311 8.76311 13.5305 8.61691C17.6839 5.85091 16.4789 3.70201 13.1052 3.70201C11.909 5.48841 12.0363 5.98471 12.0363 8.83301V8.83301Z" fill="#29921B"/>
<path fill-rule="evenodd" clip-rule="evenodd" d="M43.2553 79.9173C43.9525 80.4895 46.8368 80.6287 47.7458 80.7011C49.1854 80.8157 50.974 80.8481 52.4333 80.9029C60.3998 81.2022 71.3822 78.0718 78.5328 77.1814C79.5185 76.1872 88.6799 75.3604 89.9815 75.2299C94.3556 74.7912 98.4061 74.7038 102.927 74.7252L102.214 73.1922L90.7128 73.9959C88.8868 74.2483 84.8723 74.539 83.384 75.0202C82.4045 75.3368 80.8587 75.4115 79.7002 75.5992C77.2744 75.9924 75.1927 76.5742 72.7977 77.0393C72.362 77.1239 71.6891 77.1519 71.0921 77.2705L65.9434 78.5178C64.8731 78.7455 63.8054 78.9645 62.5357 79.1724C60.1936 79.5559 53.081 80.4991 51.2512 80.2965C50.0954 80.1686 44.3155 79.752 43.2553 79.9173V79.9173Z" fill="#A978B5"/>
<path fill-rule="evenodd" clip-rule="evenodd" d="M49.2346 71.1643C51.3179 71.1323 55.0584 68.8616 56.9129 68.1164L70.8705 60.5818C77.6512 57.0656 82.3952 55.2255 89.5943 52.7978C91.5289 52.1455 100.658 49.8159 102.473 49.5948C105.654 49.2073 108.813 48.7239 112.091 48.6373C112.332 49.0771 112.587 47.9859 112.25 49.3378L113.006 47.3264C108.459 47.2221 93.6074 49.9315 89.8379 51.7849L78.0058 56.203C75.4438 57.3684 73.1306 58.4828 70.6318 59.7333L63.6215 63.6248C62.5656 64.3633 61.2189 65.0155 60.1079 65.6659C58.9752 66.3289 57.8778 66.8885 56.6085 67.5447C56.0366 67.8404 55.4197 68.2736 54.8642 68.5644C54.1861 68.9196 53.5509 69.141 52.9171 69.4246C51.9279 69.8672 49.7853 70.5715 49.2346 71.1643V71.1643Z" fill="#F997A3"/>
<path fill-rule="evenodd" clip-rule="evenodd" d="M167.018 100.122L166.395 100.55C164.005 101.815 159.972 104.981 162.811 107.554C164.281 108.886 165.746 108.568 166.375 106.731C166.953 105.044 166.822 103.188 166.822 100.978C167.494 101.47 167.861 102.433 170.12 103.239C175.956 105.32 174.891 97.1091 169.143 99.2366L167.018 100.122V100.122Z" fill="#29921B"/>
<path fill-rule="evenodd" clip-rule="evenodd" d="M45.4799 76.437C43.9005 76.2488 40.7688 76.4224 38.9742 76.4201C36.7079 76.417 34.7379 76.195 32.4466 76.0853C32.7436 76.3662 32.4487 76.2217 33.0042 76.4373C34.0302 76.8354 41.3799 77.0301 42.3948 77.036C48.6653 77.0722 54.8234 76.2155 60.5964 74.1019C61.9541 73.6047 63.1492 73.3224 64.3854 72.7753C65.6726 72.2057 67.0806 71.8179 68.2373 71.3008C69.4738 70.748 70.8488 70.4427 72.1437 70.013C73.455 69.5779 74.7839 69.0439 76.0049 68.5633C81.1161 66.5515 90.8865 64.2725 96.6476 63.1704C98.2196 62.8697 100.009 62.8577 101.321 62.4249L101.457 61.5972C96.9974 61.6746 91.0278 63.4285 86.7068 64.4913C82.047 65.6375 77.857 67.2015 73.2771 68.7765C68.9448 70.2663 64.9175 72.0423 60.5781 73.5542C57.3987 74.6619 49.1175 76.9089 45.4799 76.437V76.437Z" fill="#70B754"/>
<path fill-rule="evenodd" clip-rule="evenodd" d="M45.4799 76.437C49.1175 76.9089 57.3987 74.6619 60.5781 73.5542C64.9175 72.0423 68.9448 70.2663 73.2771 68.7765C77.857 67.2015 82.047 65.6375 86.7068 64.4913C91.0278 63.4285 96.9974 61.6746 101.457 61.5972L101.834 60.3534C92.0504 61.4666 81.418 64.7123 73.211 67.8994C64.0344 71.4629 57.2423 75.0294 47.561 76.0153C46.864 76.0862 46.0633 76.0971 45.4799 76.437V76.437Z" fill="#AED047"/>
<path fill-rule="evenodd" clip-rule="evenodd" d="M74.7454 95.3304C75.6063 95.6612 75.7195 96.7172 76.7095 96.385C77.5446 96.1047 77.7094 94.7338 76.6092 94.5697C76.5882 94.5665 73.4801 94.6343 73.4476 94.6396C72.5174 94.7915 72.0313 95.3392 71.3907 95.7635C71.8341 94.0376 71.8469 93.7916 70.0046 93.4648C67.4337 93.0087 65.7721 92.1888 65.0915 93.1088C64.9518 93.2977 64.6421 94.095 64.7597 94.4677C65.1286 95.6367 66.048 94.4432 67.4837 94.7187C67.3364 99.9941 64.496 97.6851 64.9842 99.5381C65.7658 99.8717 68.1957 99.8269 69.2558 99.618C69.139 98.2982 67.8928 99.3613 68.8457 95.9935C68.8791 95.8754 69.0278 95.4479 69.0747 95.3457C69.2965 94.8632 69.1096 95.2071 69.3327 94.9238C70.4285 95.1984 69.5882 95.054 70.2549 95.5587L71.3026 96.1722C70.706 96.7942 70.7747 98.1742 71.0993 98.9948C72.3 102.03 78.2476 100.162 76.3879 97.5581C74.9859 97.4993 75.5382 98.4862 74.5059 98.8757C70.9478 100.218 71.682 94.153 74.7454 95.3304V95.3304Z" fill="#F35645"/>
<path fill-rule="evenodd" clip-rule="evenodd" d="M119.847 98.9825C119.876 98.2991 120.059 98.037 119.875 97.2487C117.408 96.8024 118.482 99.5243 119.36 100.32C123.767 100.591 122.3 93.7775 122.297 93.2838C122.286 91.3182 123.26 90.2719 121.953 90.2847C120.556 90.2984 121.578 92.0284 121.77 95.2785C120.39 94.5442 119.168 93.5054 117.88 92.614C116.512 91.6665 115.721 92.5829 116.243 93.5586C116.465 93.9719 118.005 94.8474 118.628 95.2972C119.184 95.6991 119.572 96.0945 120.188 96.5185C120.655 96.8404 121.365 97.1045 121.685 97.5569C121.33 98.2966 120.825 99.0345 119.847 98.9825V98.9825Z" fill="#F5893E"/>
<path fill-rule="evenodd" clip-rule="evenodd" d="M114.363 99.9389C115.843 100.268 116.359 99.7422 115.927 98.2137C114.839 94.3592 118.149 93.5888 113.507 94.0138C111.583 94.1899 110.854 94.1846 110.673 95.1701C111.672 96.0663 112.302 94.6215 112.339 96.9021C112.354 97.8356 112.234 98.9858 111.664 99.6391L111.25 99.0239C110.783 98.293 110.643 98.2768 109.205 98.54C108.954 99.3649 108.701 99.8383 109.706 100.362C113.399 102.285 113.393 99.5575 113.352 96.6832C113.338 95.7058 113.155 95.7898 113.802 95.3457C114.399 95.525 114.348 95.234 114.498 96.2545C114.784 98.2008 113.697 98.4353 114.363 99.9389Z" fill="#F5893E"/>
<path fill-rule="evenodd" clip-rule="evenodd" d="M55.4932 91.5467C55.4292 92.4096 55.0625 95.624 53.5407 94.0989C53.0198 93.5768 55.0399 91.8142 55.4932 91.5467ZM56.3567 94.1363C56.6326 93.192 57.1357 91.5025 57.1192 90.5018C56.3454 89.9383 55.4461 89.4994 54.4178 89.5038C53.6928 90.5388 53.9911 90.1717 54.3896 91.1919C53.6082 91.5627 53.3594 91.8668 52.7995 92.5626C51.7818 93.8275 51.6199 92.9802 51.0205 93.5898C50.8447 93.7685 50.0698 95.5484 51.3742 96.3874C52.4112 95.975 51.8106 95.874 52.4431 94.979C53.5277 94.8075 54.4166 95.3246 55.2939 95.5745C55.2472 96.1732 54.4589 98.5937 56.2426 97.3366C56.8179 96.9311 57.2743 95.8009 57.2662 94.7447L56.3567 94.1363V94.1363Z" fill="#F35645"/>
<path fill-rule="evenodd" clip-rule="evenodd" d="M125.334 95.2851C125.694 92.9428 128.135 92.588 128.438 94.0103C128.609 94.8098 128.002 95.5174 127.37 95.7663C126.352 96.1666 125.98 95.6918 125.334 95.2851ZM124.258 91.2847C126.3 90.4961 129.721 91.3534 128.953 88.6155C127.987 88.5942 127.328 89.1116 126.065 89.2914C123.152 89.7061 122.854 90.373 123.902 92.8028C124.226 93.5526 124.279 98.3806 128.078 96.6563C129.286 96.1083 130.448 94.0648 129.177 92.867C127.64 91.42 126.293 92.7117 124.656 92.9024C124.458 92.3825 124.269 92.0013 124.258 91.2847V91.2847Z" fill="#F5893E"/>
<path fill-rule="evenodd" clip-rule="evenodd" d="M167.262 8.74172C163.876 10.4967 166.313 15.0734 169.629 13.5825C172.464 12.3081 170.715 6.95132 167.262 8.74172Z" fill="#F5893E"/>
<path fill-rule="evenodd" clip-rule="evenodd" d="M98.1279 101.969C98.8286 101.01 98.4192 99.8576 98.3601 98.4066C98.2992 96.9115 98.5163 95.5621 97.1257 95.3977C96.4924 96.0315 96.2384 97.576 94.7741 99.0296C94.315 98.0929 94.4821 97.0583 94.3239 96.0496C94.1052 94.6559 92.9966 95.1364 92.9532 96.2423C92.9228 97.0155 93.0995 98.5217 93.1058 99.4879C93.1147 100.83 92.8764 101.608 94.1327 101.853C95.0178 101.259 95.7006 98.9707 96.8302 98.3979C96.8675 101.298 96.5981 102.097 98.1279 101.969V101.969Z" fill="#F5893E"/>
<path fill-rule="evenodd" clip-rule="evenodd" d="M89.1368 98.0599C89.4792 99.7242 89.0465 101.998 90.8993 101.584C91.4081 100.37 90.7685 96.3251 90.0708 95.4595C88.6204 95.4562 89.1383 96.4089 87.2859 99.0148C86.3392 97.7668 87.2365 96.1038 86.0086 95.4513C84.7848 96.0031 85.4503 97.3445 85.5817 98.6332C85.718 99.969 85.5342 100.986 86.2478 101.77C87.477 101.781 87.2824 101.125 87.8894 100.078C88.3077 99.3566 88.6531 98.595 89.1368 98.0599Z" fill="#F5893E"/>
<path fill-rule="evenodd" clip-rule="evenodd" d="M79.3852 94.151C76.5555 93.597 78.9064 96.8413 78.7554 99.0587C78.7019 99.8433 78.3232 101.979 79.797 100.781C80.7156 100.034 78.9893 97.7364 81.2332 98.2398C82.478 98.519 82.2511 99.9228 82.6218 101.001L83.7406 100.859C83.9287 100.048 83.9862 98.9036 83.5528 98.0958C83.083 97.22 82.6144 97.265 81.7036 96.7018L82.6579 95.9086C83.1022 95.6856 83.3079 95.6553 83.6548 95.4678C83.9861 93.7025 82.5563 92.971 81.8085 95.0781C81.5004 95.9466 80.5981 97.3243 79.5948 96.6952C78.9608 95.5541 79.7512 95.3426 79.3852 94.151V94.151Z" fill="#F5893E"/>
<path fill-rule="evenodd" clip-rule="evenodd" d="M105.553 96.9155C106.502 95.0069 107.761 96.1915 107.433 94.0648C105.711 93.5763 105.98 94.2133 105.563 95.5151C105.273 96.4189 104.644 97.2881 103.582 97.0741C103.029 95.8553 103.768 94.8863 102.841 94.6147C100.643 93.9712 102.817 97.4798 103.026 98.492C103.391 100.263 102.73 100.442 103.414 101.111C104.081 101.754 104.764 101.086 104.716 100.383C104.655 99.4929 103.935 99.5835 104.395 98.5964C107.568 97.539 106.676 102.74 108.25 100.574C108.77 99.8597 108.185 98.5357 107.772 98.0326C107.117 97.2349 106.538 97.3863 105.553 96.9155Z" fill="#F5893E"/>
<path fill-rule="evenodd" clip-rule="evenodd" d="M60.527 92.6397C61.2508 92.2239 63.0312 92.5355 63.3477 93.4738C62.3373 93.596 61.0748 93.3857 60.527 92.6397ZM62.6216 96.1523C62.3228 95.8756 62.9161 95.907 61.9983 96.012C61.9421 96.0184 59.5638 96.6955 59.3502 94.8858C59.3042 94.4956 58.749 93.9407 61.0732 94.4887C65.6464 95.567 64.178 92.2736 61.7351 91.8974C59.4045 91.5384 57.1915 93.8495 58.0561 95.7773C59.2648 98.4727 63.8033 97.4519 62.6216 96.1523Z" fill="#F35645"/>
<path fill-rule="evenodd" clip-rule="evenodd" d="M78.5328 77.1814C79.8701 77.2975 83.0121 76.6266 84.5314 76.4598C86.54 76.2391 88.5349 75.9123 90.5045 75.7948C94.8003 75.5388 98.8231 75.355 103.332 75.4096C103.163 74.9758 103.397 75.1833 102.927 74.7252C98.4061 74.7038 94.3556 74.7912 89.9815 75.2299C88.6799 75.3604 79.5185 76.1872 78.5328 77.1814V77.1814Z" fill="#D3AFD5"/>
<path fill-rule="evenodd" clip-rule="evenodd" d="M57.9536 59.9786C58.9963 59.7884 59.0745 59.1522 59.4135 58.1429C59.9982 56.4021 60.9675 52.0237 60.8733 50.7017L60.5552 50.6292C60.5193 50.6298 60.4445 50.6198 60.4064 50.6258C60.3699 50.6314 60.3022 50.6426 60.2667 50.655C59.8308 50.8076 59.553 51.5892 59.3208 52.0602C58.9557 52.8011 58.6356 53.4673 58.3756 54.3162C57.7497 56.3608 57.5941 57.8832 57.9536 59.9786V59.9786Z" fill="white"/>
<path fill-rule="evenodd" clip-rule="evenodd" d="M11.9449 100.609C9.74028 101.515 10.7396 105.562 13.6858 104.388C15.8337 103.533 14.8145 99.4298 11.9449 100.609Z" fill="#F5893E"/>
<path fill-rule="evenodd" clip-rule="evenodd" d="M155.276 83.8334C155.443 83.7109 159.229 82.1736 160.68 80.8998C160.318 80.5422 159.803 81.5172 159.722 79.7728C160.71 79.9653 160.051 79.9449 160.768 80.1838L161.204 79.4389C160.827 79.1611 160.358 78.8479 159.981 78.5846C158.991 79.7707 158.75 78.3596 157.485 80.4535C157.838 81.5956 157.782 80.0263 158.126 81.6012C157.551 81.9883 157.474 82.1244 156.735 82.5794C156.037 83.0096 156.271 83.1279 155.162 83.0479L155.276 83.8334V83.8334Z" fill="#A9D6E9"/>
<path fill-rule="evenodd" clip-rule="evenodd" d="M125.334 95.2851C125.98 95.6918 126.352 96.1666 127.37 95.7663C128.002 95.5174 128.609 94.8098 128.438 94.0103C128.135 92.588 125.694 92.9428 125.334 95.2851Z" fill="white"/>
<path fill-rule="evenodd" clip-rule="evenodd" d="M12.6777 13.1089C12.7074 13.1516 12.7453 13.1706 12.7564 13.2437L14.6001 16.5313C14.8982 16.9786 15.8445 18.6243 16.4319 18.773C17.162 18.9578 16.8662 18.6142 16.7075 18.3151C16.2156 17.3887 13.1063 13.7668 12.8915 11.1847V10.9709H12.6365L12.6777 13.1089V13.1089Z" fill="#17630A"/>
<path fill-rule="evenodd" clip-rule="evenodd" d="M96.6982 42.7736C97.4479 41.9168 98.1351 39.1067 96.2721 40.0185C95.2375 40.5248 94.296 42.964 96.6982 42.7736Z" fill="white"/>
<path fill-rule="evenodd" clip-rule="evenodd" d="M94.0049 93.7947C93.9827 94.9483 94.8129 95.2612 96.0128 95.1371C97.2916 95.0048 97.6481 94.6202 97.3816 93.4321C96.8824 93.3058 94.6871 93.5634 94.0049 93.7947Z" fill="#F5893E"/>
<path fill-rule="evenodd" clip-rule="evenodd" d="M166.395 100.55L167.018 100.122L166.18 99.0545C165.836 98.5931 163.928 95.6162 163.435 95.7802C162.872 95.9673 163.456 96.5875 163.656 96.8573L166.395 100.55V100.55Z" fill="#17630A"/>
<path fill-rule="evenodd" clip-rule="evenodd" d="M167.534 67.9191C168.109 69.2566 168.59 69.2717 168.25 71.1039C168.112 71.8429 167.398 73.994 167.48 74.1409C169.004 71.9214 168.823 69.8964 168.838 66.9995C168.682 67.0759 168.261 67.2213 168.026 67.354C167.472 67.6681 167.54 67.1378 167.534 67.9191V67.9191Z" fill="#4492C4"/>
<path fill-rule="evenodd" clip-rule="evenodd" d="M102.904 37.5044C103.439 37.0131 105.328 34.767 104.181 33.668C103.074 34.1198 102.952 36.2597 102.904 37.5044Z" fill="white"/>
<path fill-rule="evenodd" clip-rule="evenodd" d="M141.415 47.6649C141.302 47.2008 141.28 46.9957 141.064 46.5563C141.023 46.473 140.905 46.2627 140.814 46.1549C140.581 45.8789 140.681 46.0049 140.415 45.8133C140.345 45.8241 140.087 45.8261 140.031 45.8459C139.259 46.117 139.735 45.8881 139.283 46.2467L139.837 47.0938C139.944 47.3262 140.029 48.0321 140.129 48.3383C141.763 48.1413 140.524 48.5757 141.415 47.6649V47.6649Z" fill="#A9D6E9"/>
<path fill-rule="evenodd" clip-rule="evenodd" d="M55.4932 91.5467C55.0399 91.8142 53.0198 93.5768 53.5407 94.0989C55.0625 95.624 55.4292 92.4096 55.4932 91.5467Z" fill="white"/>
<path fill-rule="evenodd" clip-rule="evenodd" d="M159.207 76.4943C158.3 76.1198 158.402 76.6276 158.332 76.6954C158.558 76.889 158.078 77.824 158.705 78.5052C159.375 78.332 159.722 77.8925 159.928 77.2466C159.777 77.0477 159.48 76.6071 159.207 76.4943Z" fill="#83C4D6"/>
<path fill-rule="evenodd" clip-rule="evenodd" d="M60.527 92.6397C61.0748 93.3857 62.3373 93.596 63.3477 93.4738C63.0312 92.5355 61.2508 92.2239 60.527 92.6397Z" fill="white"/>
</svg>
